<?xml version="1.0" encoding="UTF-8"?><svg id="Lager_1" xmlns="http://www.w3.org/2000/svg" xmlns:xlink="http://www.w3.org/1999/xlink" viewBox="0 0 329.97 129.47"><defs><radialGradient id="Namnlös_övertoning_64" cx="-33.8" cy="497.99" fx="-33.8" fy="497.99" r="59.66" gradientTransform="translate(-80.89 -443.26) rotate(-20.35)" gradientUnits="userSpaceOnUse"><stop offset=".28" stop-color="blue"/><stop offset="1" stop-color="#5820ff"/></radialGradient><filter id="luminosity-noclip-2" x="38.62" y="35.22" width="40.38" height="35.02" color-interpolation-filters="sRGB" filterUnits="userSpaceOnUse"><feFlood flood-color="#fff" result="bg"/><feBlend in="SourceGraphic" in2="bg"/></filter><filter id="luminosity-noclip-3" x="38.62" y="-8340.54" width="40.38" height="32766" color-interpolation-filters="sRGB" filterUnits="userSpaceOnUse"><feFlood flood-color="#fff" result="bg"/><feBlend in="SourceGraphic" in2="bg"/></filter><mask id="mask-1" x="38.62" y="-8340.54" width="40.38" height="32766" maskUnits="userSpaceOnUse"/><radialGradient id="radial-gradient" cx="66.33" cy="37.94" fx="66.33" fy="37.94" r="35.13" gradientTransform="matrix(1, 0, 0, 1, 0, 0)" gradientUnits="userSpaceOnUse"><stop offset="0" stop-color="#000"/><stop offset="1" stop-color="#fff"/></radialGradient><mask id="mask" x="38.62" y="35.22" width="40.38" height="35.02" maskUnits="userSpaceOnUse"><g filter="url(#luminosity-noclip-2)"><g mask="url(#mask-1)"><path d="M74.66,70.24l3.17-1.17,1.07-6.29c.47-2.74-.57-5.53-2.71-7.3l-22.28-18.46c-2.14-1.78-5.07-2.27-7.68-1.31l-7.22,2.68-.39,2.31,7.36-2.73c2.39-.89,5.07-.43,7.04,1.2l20.43,16.93c1.96,1.63,2.91,4.18,2.48,6.69l-1.27,7.46Z" fill="url(#radial-gradient)" mix-blend-mode="multiply"/></g></g></mask><radialGradient id="Namnlös_övertoning_40" cx="66.33" cy="37.94" fx="66.33" fy="37.94" r="35.13" gradientTransform="matrix(1, 0, 0, 1, 0, 0)" gradientUnits="userSpaceOnUse"><stop offset=".28" stop-color="#3fa9f5"/><stop offset=".63" stop-color="#69f4ff"/></radialGradient><radialGradient id="Namnlös_övertoning_147" cx="43.33" cy="72.4" fx="43.33" fy="72.4" r="31.52" gradientTransform="matrix(1, 0, 0, 1, 0, 0)" gradientUnits="userSpaceOnUse"><stop offset=".28" stop-color="#74ffd6"/><stop offset="1" stop-color="#3feaf5"/></radialGradient><radialGradient id="radial-gradient-2" cx="-13.26" cy="480" fx="-13.26" fy="480" r="76.92" gradientTransform="translate(-80.89 -443.26) rotate(-20.35)" gradientUnits="userSpaceOnUse"><stop offset="0" stop-color="#fc54b9"/><stop offset="1" stop-color="#fba700"/></radialGradient><radialGradient id="Namnlös_övertoning_157" cx="48.98" cy="44.49" fx="48.98" fy="44.49" r="32.05" gradientTransform="matrix(1, 0, 0, 1, 0, 0)" gradientUnits="userSpaceOnUse"><stop offset=".28" stop-color="#a0ffef"/><stop offset="1" stop-color="#3fa9f5"/></radialGradient></defs><g><path d="M85.69,49.4l-20.43-16.93c-1.96-1.63-4.65-2.08-7.04-1.2l-24.87,9.22c-2.39,.89-4.13,2.98-4.56,5.5l-3.18,18.69,7.36-2.73c2.39-.89,5.07-.43,7.04,1.2l20.43,16.93c1.96,1.63,2.91,4.18,2.48,6.69l-1.27,7.46,17.52-6.5c2.39-.89,4.13-2.98,4.56-5.5l4.45-26.15c.43-2.51-.52-5.07-2.48-6.69Z" fill="url(#Namnlös_övertoning_64)"/><g mask="url(#mask)"><path d="M74.66,70.24l3.17-1.17,1.07-6.29c.47-2.74-.57-5.53-2.71-7.3l-22.28-18.46c-2.14-1.78-5.07-2.27-7.68-1.31l-7.22,2.68-.39,2.31,7.36-2.73c2.39-.89,5.07-.43,7.04,1.2l20.43,16.93c1.96,1.63,2.91,4.18,2.48,6.69l-1.27,7.46Z" fill="url(#Namnlös_övertoning_40)" opacity=".52"/></g><path d="M60.26,71.77l-20.43-16.93c-1.96-1.63-2.91-4.18-2.48-6.69l1.27-7.46-17.52,6.5c-2.39,.89-4.13,2.98-4.56,5.5l-4.45,26.15c-.43,2.51,.52,5.07,2.48,6.69l20.43,16.93c1.96,1.63,4.65,2.08,7.04,1.2l24.87-9.22c2.39-.89,4.13-2.98,4.56-5.5l3.18-18.69-7.36,2.73c-2.39,.89-5.07,.43-7.04-1.2Z" fill="url(#Namnlös_övertoning_147)"/><path d="M73.44,56.09l-20.43-16.93c-1.96-1.63-4.65-2.08-7.04-1.2l-7.36,2.73-1.27,7.46c-.43,2.51,.52,5.07,2.48,6.69l20.43,16.93c1.96,1.63,4.65,2.08,7.04,1.2l7.36-2.73,1.27-7.46c.43-2.51-.52-5.07-2.48-6.69Z" fill="url(#radial-gradient-2)"/><path d="M73.44,56.09l-20.43-16.93c-1.96-1.63-4.65-2.08-7.04-1.2l-7.36,2.73-1.27,7.46c-.43,2.51,.52,5.07,2.48,6.69l20.43,16.93c1.96,1.63,4.65,2.08,7.04,1.2l7.36-2.73,1.27-7.46c.43-2.51-.52-5.07-2.48-6.69Z" fill="url(#Namnlös_övertoning_157)"/></g><g><path d="M106.49,56.11c0,2.38,2.22,3.06,4.69,3.79,2.87,.84,5.99,1.76,5.99,5.56,0,4.15-3.31,5.77-6.94,5.77-4.09,0-6.64-1.63-7.15-5.66l2.38-.35c.46,2.09,1.44,3.9,4.8,3.9,2.11,0,4.36-.7,4.36-3.31,0-2.44-2.2-3.09-4.61-3.77-2.93-.81-6.07-1.65-6.07-5.69,0-3.36,2.82-5.42,6.61-5.42,3.44,0,6.04,1.33,6.45,5.53l-2.33,.27c-.3-1.87-1.06-3.69-4.09-3.69s-4.09,1.33-4.09,3.06Z" fill="#fff"/><path d="M120.89,70.9v-19.62h6.75c4.63,0,5.91,2.11,5.91,4.8s-1.76,4.12-3.9,4.61v.05c3.2,.41,4.69,2.14,4.69,4.85,0,4.01-3.01,5.31-7.26,5.31h-6.18Zm5.31-11.03c2.14,0,4.82-.6,4.82-3.44,0-2.44-1.41-3.09-4.09-3.09h-3.58v6.53h2.85Zm.51,8.94c2.85,0,4.99-.43,4.99-3.39,0-2.6-1.95-3.5-4.44-3.5h-3.9v6.88h3.36Z" fill="#fff"/></g><g><path d="M163.71,70.38c-1.05,2.5-4.71,4.43-8.77,4.43-8.78,0-12.44-6.04-12.44-14.69,0-9.86,5.15-15.46,13.65-15.46,6.12,0,10.26,2.7,10.79,9.7l-3.54,.36c-.48-4.71-2.82-6.84-7.37-6.84-6.16,0-9.7,4.35-9.7,11.91,0,9.02,3.94,11.87,9.34,11.87s7.77-3.54,7.77-6.96v-2.5h-7.73v-3.02h11.23v15.13h-2.7l-.52-3.94Z" fill="#fff"/><path d="M184.36,57.02c-2.58-.36-5.63,.68-7.33,2.25v15.05h-3.66v-20.69h3.06l.28,2.98c1.81-2.46,3.99-3.42,6.88-3.42,.24,0,.4,0,.76,.04v3.78Z" fill="#fff"/><path d="M186.18,64.06c0-6.68,3.46-10.87,10.06-10.87s9.26,4.23,9.26,10.39c0,6.8-2.82,11.23-9.78,11.23s-9.54-4.63-9.54-10.75Zm15.5-.24c0-5.72-2.01-7.61-5.59-7.61s-6.12,2.17-6.12,7.69,1.93,7.97,5.96,7.97c3.58,0,5.76-2.17,5.76-8.05Z" fill="#fff"/><path d="M210.65,53.64h3.66v13.48c0,2.86,.68,4.43,3.74,4.43,2.37,0,4.91-1.53,6-2.54v-15.38h3.66v20.69h-3.18l-.24-2.38c-2.01,1.65-4.47,2.78-7.33,2.78-4.39,0-6.32-2.42-6.32-7.04v-14.05Z" fill="#fff"/><path d="M234.13,53.64h3.18l.2,2.38c1.89-1.69,4.23-2.82,7.17-2.82,4.35,0,7.57,2.7,7.57,10.3,0,8.09-3.99,11.31-8.61,11.31-2.5,0-4.47-.89-5.96-2.01v10.06h-3.54v-29.22Zm3.66,16.02c.88,.68,2.94,2.05,5.31,2.05,3.95,0,5.39-3.3,5.39-8.25,0-5.19-1.61-7.21-4.91-7.21-2.29,0-4.59,1.41-5.8,2.62v10.79Z" fill="#fff"/></g></svg>