<?xml version="1.0" encoding="UTF-8"?><svg id="Lager_1" xmlns="http://www.w3.org/2000/svg" xmlns:xlink="http://www.w3.org/1999/xlink" viewBox="0 0 260 224"><defs><radialGradient id="Namnlös_övertoning_64" cx="76.17" cy="96.15" fx="76.17" fy="96.15" r="10.34" gradientTransform="matrix(1, 0, 0, 1, 0, 0)" gradientUnits="userSpaceOnUse"><stop offset=".28" stop-color="blue"/><stop offset="1" stop-color="#5820ff"/></radialGradient><radialGradient id="Namnlös_övertoning_64-2" cx="77.26" cy="111.52" fx="77.26" fy="111.52" r="9.81" xlink:href="#Namnlös_övertoning_64"/></defs><path d="M242.97,163.6c-1.32-2.1-1.8-4.62-1.35-7.06,.05-.24-.33-.3-.38-.06-.47,2.54,.04,5.16,1.42,7.34,.13,.21,.44-.02,.31-.23Z" fill="#fff"/><polygon points="25.96 178.11 28.63 178.11 29.9 167.81 25.96 167.81 25.96 178.11" fill="#ffb6b6"/><path d="M25.27,177.24h5.26c1.85,0,3.35,1.5,3.35,3.35v.11h-8.61v-3.46Z" fill="#2f2e41"/><g><path d="M41.37,173.69c-7.25-4.73-12.53-13.22-11.45-21.81,6.53,6.78,15.25,11.03,24.62,12.01,3.61,.36,7.67,.39,10.24,2.96,1.6,1.6,2.27,3.94,2.31,6.19,.03,2.26-.51,4.48-1.05,6.68l.13,.55c-8.65-.32-17.54-1.84-24.8-6.57Z" fill="#f0f0f0"/><path d="M30.1,151.88c2.71,6.63,7.45,12.24,13.53,16.03,1.3,.84,2.71,1.47,4.21,1.87,1.46,.34,2.99,.28,4.43-.17,1.35-.39,2.68-.95,4.1-1.01,1.47-.04,2.89,.55,3.89,1.62,1.28,1.29,2.01,2.95,2.68,4.61,.74,1.84,1.48,3.76,2.98,5.12,.18,.16-.08,.44-.27,.27-2.62-2.37-2.9-6.17-4.96-8.92-.96-1.28-2.31-2.28-3.96-2.33-1.44-.04-2.82,.54-4.18,.95-1.39,.46-2.88,.57-4.32,.33-1.51-.32-2.95-.89-4.26-1.7-2.99-1.76-5.68-3.98-7.98-6.58-2.64-2.95-4.75-6.33-6.25-9.99-.09-.23,.28-.33,.37-.1h0Z" fill="#fff"/><path d="M41.61,166.8c-1.6,1.93-4.36,2.42-6.52,1.15-.21-.12-.03-.46,.18-.33,2.01,1.18,4.59,.72,6.07-1.08,.16-.19,.43,.08,.27,.27h0Z" fill="#fff"/><path d="M51.61,169.89c-.21-2.47-1.34-4.77-3.17-6.45-.18-.17,.09-.44,.27-.27,1.9,1.74,3.08,4.14,3.29,6.72,.02,.25-.36,.25-.38,0h0Z" fill="#fff"/><path d="M33.83,158.86c.76-.61,1.17-1.56,1.08-2.53-.02-.24,.36-.25,.38,0,.09,1.07-.35,2.12-1.19,2.8-.07,.07-.19,.07-.27,0-.07-.07-.08-.19,0-.27h0Z" fill="#fff"/><path d="M54.67,136.16c.02,.15,.04,.3,.06,.46,.26,2.05,.69,4.07,1.28,6.05,.04,.15,.09,.31,.14,.46,1.47,4.75,3.82,9.19,6.91,13.09,1.23,1.55,2.58,3,4.04,4.35,2.01,1.86,4.33,3.71,5.57,6.05,.13,.24,.25,.49,.35,.75l-6.19,12.69s-.05,.05-.08,.07l-.22,.52c-.08-.06-.16-.13-.24-.2-.05-.04-.09-.08-.14-.11-.03-.03-.06-.05-.09-.07l-.03-.02s-.05-.04-.08-.06c-.46-.38-.91-.76-1.36-1.15h0c-3.44-2.97-6.66-6.25-9.28-9.91-.08-.11-.16-.22-.24-.34-1.17-1.66-2.21-3.41-3.09-5.23-.48-1-.91-2.03-1.29-3.07-.97-2.7-1.52-5.54-1.61-8.41-.18-5.72,1.47-11.44,5.31-15.59,.1-.11,.2-.21,.3-.31Z" fill="#f0f0f0"/><path d="M54.81,136.26c-1.83,6.93-1.42,14.26,1.15,20.95,.53,1.45,1.28,2.81,2.23,4.02,.97,1.15,2.22,2.03,3.64,2.53,1.31,.5,2.71,.85,3.88,1.66,1.2,.85,1.97,2.18,2.13,3.64,.24,1.79-.17,3.57-.64,5.29-.52,1.91-1.09,3.89-.71,5.88,.05,.24-.33,.3-.38,.06-.66-3.47,1.4-6.67,1.41-10.11,0-1.6-.47-3.21-1.76-4.24-1.13-.9-2.57-1.27-3.91-1.76-1.39-.47-2.64-1.28-3.65-2.34-1.01-1.16-1.82-2.49-2.38-3.92-1.32-3.2-2.14-6.6-2.41-10.05-.33-3.94,.02-7.91,1.02-11.74,.06-.24,.42-.09,.35,.14Z" fill="#fff"/><path d="M55.01,155.11c-2.44,.58-4.94-.7-5.9-3.01-.09-.23,.25-.38,.35-.16,.89,2.16,3.23,3.34,5.5,2.79,.24-.06,.3,.32,.06,.38Z" fill="#fff"/><path d="M61.14,163.6c1.32-2.1,1.8-4.62,1.35-7.06-.05-.24,.33-.3,.38-.06,.47,2.54-.04,5.16-1.42,7.34-.13,.21-.44-.02-.31-.23Z" fill="#fff"/><path d="M53.58,144.08c.97-.03,1.87-.54,2.38-1.37,.13-.21,.44,.02,.31,.23-.57,.91-1.56,1.48-2.63,1.52-.1,.01-.2-.06-.22-.16-.02-.1,.06-.2,.16-.22h0Z" fill="#fff"/><path d="M55.66,132.01c-1.04-.62-1.37-1.97-.75-3.01,.07-.11,.14-.21,.23-.31l-3.86-6.76,4.04,.26,3.05,6.38c.86,.86,.86,2.25,0,3.12-.72,.72-1.84,.85-2.71,.32Z" fill="#ffb6b6"/><polygon points="44.26 178.11 46.93 178.11 48.2 167.81 44.26 167.81 44.26 178.11" fill="#ffb6b6"/><path d="M43.58,177.24h5.26c1.85,0,3.35,1.5,3.35,3.35v.11h-8.61v-3.46Z" fill="#2f2e41"/><path d="M51.13,122.21s.73,10.46-.71,15.73c-1.45,5.27-1.71,37.14-1.71,37.14h-4.85l-4.2-43.38-9.69,43.53-4.62-.32,2.53-51.3,23.25-1.41Z" fill="#2f2e41"/><path d="M29.88,86.94l3.71-2.71,6.21,1.35,1.68,4,2.9,1.44c1.93,.96,3.27,2.81,3.58,4.94l4.14,28.59-24.23-.94-2.93-33.67c-.13-1.45,.95-2.73,2.4-2.86,.03,0,.05,0,.08,0l2.46-.14Z" fill="#3f3d56"/><polygon points="45.92 93.26 48.15 96.27 57.9 126 53.33 127.83 46.02 113.98 45.92 93.26" fill="#3f3d56"/><circle cx="37.8" cy="77.41" r="5.41" fill="#ffb9b9"/><polygon points="26.01 99.68 34.84 111.96 44.71 118.4 26.01 99.68" isolation="isolate" opacity=".1"/><path d="M34.94,81.33c-.38-.75-.76-1.57-.62-2.4s1.09-1.55,1.83-1.14c.3-1.1,1.65-1.58,2.79-1.45s2.18,.67,3.29,.91,2.47,.05,3.08-.92l-1.44-.02,1.5-1.74-1.74-.13c.6-.65,.44-1.76-.14-2.43s-1.47-.99-2.34-1.19c-1.73-.4-3.52-.44-5.26-.12-.82,.13-1.61,.4-2.34,.81-.68,.42-1.24,1-1.63,1.7-.42,.79-.65,1.66-.66,2.55-.05,2.42,1.13,4.71,3.14,6.07" fill="#2f2e41"/><path d="M236.44,180.84H68.49c-3.6,0-6.52-2.92-6.52-6.52V48.23c0-3.6,2.92-6.52,6.52-6.52H236.44c3.6,0,6.52,2.92,6.52,6.52v126.08c0,3.6-2.92,6.52-6.52,6.52Z" fill="#e4e4e4"/><path d="M194.17,99.6h-25.93c-2.67,0-4.83-2.16-4.83-4.83s2.16-4.83,4.83-4.83h25.93c2.67,0,4.83,2.16,4.83,4.83s-2.16,4.83-4.83,4.83Z" fill="#fff"/><path d="M171.46,112.8h-6.12c-.98,0-1.77-.79-1.77-1.77s.79-1.77,1.77-1.77h6.12c.98,0,1.77,.79,1.77,1.77s-.79,1.77-1.77,1.77Z" fill="#fff"/><path d="M196.9,112.8h-6.12c-.98,0-1.77-.79-1.77-1.77s.79-1.77,1.77-1.77h6.12c.98,0,1.77,.79,1.77,1.77s-.79,1.77-1.77,1.77h0Z" fill="#fff"/><path d="M184.02,112.8h-6.12c-.98,0-1.77-.79-1.77-1.77s.79-1.77,1.77-1.77h6.12c.98,0,1.77,.79,1.77,1.77s-.79,1.77-1.77,1.77Z" fill="#fff"/><path d="M171.46,119.57h-6.12c-.98,0-1.77-.79-1.77-1.77s.79-1.77,1.77-1.77h6.12c.98,0,1.77,.79,1.77,1.77s-.79,1.77-1.77,1.77Z" fill="#fff"/><path d="M196.9,119.57h-6.12c-.98,0-1.77-.79-1.77-1.77s.79-1.77,1.77-1.77h6.12c.98,0,1.77,.79,1.77,1.77s-.79,1.77-1.77,1.77h0Z" fill="#fff"/><path d="M184.02,119.57h-6.12c-.98,0-1.77-.79-1.77-1.77s.79-1.77,1.77-1.77h6.12c.98,0,1.77,.79,1.77,1.77s-.79,1.77-1.77,1.77Z" fill="#fff"/><path d="M171.46,126.33h-6.12c-.98,0-1.77-.79-1.77-1.77s.79-1.77,1.77-1.77h6.12c.98,0,1.77,.79,1.77,1.77s-.79,1.77-1.77,1.77Z" fill="#fff"/><path d="M196.9,126.33h-6.12c-.98,0-1.77-.79-1.77-1.77s.79-1.77,1.77-1.77h6.12c.98,0,1.77,.79,1.77,1.77s-.79,1.77-1.77,1.77h0Z" fill="#fff"/><path d="M184.02,126.33h-6.12c-.98,0-1.77-.79-1.77-1.77s.79-1.77,1.77-1.77h6.12c.98,0,1.77,.79,1.77,1.77s-.79,1.77-1.77,1.77Z" fill="#fff"/><path d="M171.46,133.09h-6.12c-.98,0-1.77-.79-1.77-1.77s.79-1.77,1.77-1.77h6.12c.98,0,1.77,.79,1.77,1.77s-.79,1.77-1.77,1.77Z" fill="#fff"/><path d="M196.9,133.09h-6.12c-.98,0-1.77-.79-1.77-1.77s.79-1.77,1.77-1.77h6.12c.98,0,1.77,.79,1.77,1.77s-.79,1.77-1.77,1.77h0Z" fill="#fff"/><path d="M184.02,133.09h-6.12c-.98,0-1.77-.79-1.77-1.77s.79-1.77,1.77-1.77h6.12c.98,0,1.77,.79,1.77,1.77s-.79,1.77-1.77,1.77Z" fill="#fff"/><circle cx="130.08" cy="109.58" r="16.42" transform="translate(1.07 220.43) rotate(-80.78)" fill="#cacaca"/><path d="M130.08,129.71c-2.67,0-4.83-2.16-4.83-4.83v-30.6c0-2.67,2.16-4.83,4.83-4.83,2.67,0,4.83,2.16,4.83,4.83h0v30.6c0,2.67-2.16,4.83-4.83,4.83Z" fill="#fff"/><path d="M172.99,97.52h-4.51c-.36,0-.64-.29-.64-.64s.29-.64,.64-.64h4.51c.36,0,.64,.29,.64,.64s-.29,.64-.64,.64Z" fill="#e4e4e4"/><path d="M180.07,97.69h-4.51c-.36,0-.64-.29-.64-.64s.29-.64,.64-.64h4.51c.36,0,.64,.29,.64,.64s-.29,.64-.64,.64Z" fill="#e4e4e4"/><path d="M187.16,97.85h-4.51c-.36,0-.64-.29-.64-.64s.29-.64,.64-.64h4.51c.36,0,.64,.29,.64,.64s-.29,.64-.64,.64Z" fill="#e4e4e4"/><path d="M194.24,98.01h-4.51c-.36,0-.64-.29-.64-.64s.29-.64,.64-.64h4.51c.36,0,.64,.29,.64,.64s-.29,.64-.64,.64Z" fill="#e4e4e4"/><path d="M83.38,160.95c0,1.61,.64,3.15,1.79,4.29h-2.66c-3.3,0-5.98-2.68-5.98-5.98h0V62.36c0-3.3,2.68-5.98,5.98-5.98h3.87c-1.86,1.08-3,3.07-3,5.22v99.35Z" fill="#cacaca"/><path d="M82.73,84.7c-2.04-.57-4.08-1.1-6.13-1.58-7.01-1.67-14.12-2.91-21.28-3.71-2.53-.67-5.12,.83-5.81,3.35l-3.58,13.2c-.68,2.53,.81,5.14,3.35,5.83h.05c4.73,.55,9.51,1.29,14.27,2.25,.43,.08,.85,.17,1.27,.26,1.52,.32,3.04,.65,4.56,1.01,.66,.15,1.32,.32,1.99,.48,1.78,.44,3.57,.92,5.36,1.42,1.99,.56,3.98,1.16,5.96,1.79,.22,.06,.43,.13,.64,.2v-24.33c-.21-.06-.43-.13-.64-.18Z" fill="#fff"/><path d="M82.73,84.7c-2.04-.57-4.08-1.1-6.13-1.58-7.01-1.67-14.12-2.91-21.28-3.71-2.53-.67-5.12,.83-5.81,3.35l-3.58,13.2c-.68,2.53,.81,5.14,3.35,5.83h.05c4.73,.55,9.51,1.29,14.27,2.25,.43,.08,.85,.17,1.27,.26,1.52,.32,3.04,.65,4.56,1.01,.66,.15,1.32,.32,1.99,.48,1.78,.44,3.57,.92,5.36,1.42,1.99,.56,3.98,1.16,5.96,1.79,.22,.06,.43,.13,.64,.2v-.68c-.22-.07-.43-.14-.64-.2-1.83-.58-3.66-1.13-5.48-1.65-.68-.2-1.37-.39-2.05-.57-1.23-.33-2.46-.65-3.68-.95-.65-.16-1.3-.32-1.95-.47-.05-.01-.1-.02-.15-.04-1.1-.26-2.21-.51-3.32-.75-.43-.09-.85-.18-1.28-.27-5.13-1.06-10.29-1.89-15.4-2.47-2.18-.61-3.46-2.85-2.87-5.03l3.58-13.21c.6-2.19,2.85-3.48,5.04-2.89h.05c7.07,.79,14.09,2.01,21.02,3.65,.07,.02,.14,.04,.21,.05,2.1,.5,4.19,1.05,6.28,1.63,.21,.06,.43,.12,.64,.18v-.67c-.21-.06-.43-.13-.64-.18Z" fill="#6c63ff"/><path d="M83.38,85.22v23.65c-.22-.07-.43-.14-.64-.21-1.9-.61-3.81-1.18-5.73-1.72-1.84-.52-3.68-1.01-5.54-1.47-.66-.16-1.31-.32-1.97-.47-.03-.12-.05-.23-.07-.35-.12-.55-.21-1.11-.28-1.68-.03-.22-.05-.43-.08-.65-.69-7,1.97-13.91,7.18-18.63,.09-.09,.19-.18,.29-.26,2.08,.5,4.15,1.03,6.21,1.61,.22,.05,.43,.12,.64,.18Z" fill="url(#Namnlös_övertoning_64)"/><path d="M61.99,94.9l-8.96-1.06c-1.33-.16-2.53,.79-2.68,2.12-.16,1.33,.79,2.53,2.12,2.68h0l8.96,1.06c1.33,.15,2.52-.8,2.68-2.12,.15-1.32-.79-2.52-2.11-2.68Zm1.48,2.61c-.12,.97-1,1.66-1.97,1.55l-8.96-1.06c-.97-.12-1.66-1-1.54-1.97,.12-.97,.99-1.66,1.96-1.55l8.96,1.06c.97,.12,1.66,1,1.55,1.97h0Z" fill="#6c63ff"/><path d="M83.38,90.75v11.22c-.21,.12-.42,.23-.64,.33-2.36,1.05-5.13,.61-7.03-1.14-.09-.08-.18-.17-.27-.26-.09-.09-.17-.18-.25-.27-2.36-2.71-2.07-6.81,.63-9.17,1.91-1.66,4.61-2.06,6.92-1.03,.22,.1,.44,.21,.64,.33Z" fill="#fff"/><path d="M82.73,98.87c-2.53,.53-5.05,1.11-7.55,1.76-.93,.24-1.86,.49-2.79,.74-1.11,.31-2.22,.62-3.32,.95-1.41,.42-2.83,.86-4.24,1.31-.41,.14-.82,.27-1.23,.41-3.92,1.31-7.81,2.76-11.64,4.34-2.54,.63-4.09,3.19-3.47,5.74l3.23,13.29c.62,2.55,3.19,4.11,5.74,3.5l.05-.02c6.3-2.58,12.74-4.79,19.3-6.61,1.96-.54,3.94-1.06,5.94-1.54,.22-.05,.43-.1,.64-.15v-23.85c-.22,.04-.43,.08-.64,.13Z" fill="#fff"/><path d="M82.73,98.87c-2.53,.53-5.05,1.11-7.55,1.76-.93,.24-1.86,.49-2.79,.74-1.11,.31-2.22,.62-3.32,.95-1.41,.42-2.83,.86-4.24,1.31-.41,.14-.82,.27-1.23,.41-3.92,1.31-7.81,2.76-11.64,4.34-2.54,.63-4.09,3.19-3.47,5.74l3.23,13.29c.62,2.55,3.19,4.11,5.74,3.5l.05-.02c6.3-2.58,12.74-4.79,19.3-6.61,1.96-.54,3.94-1.06,5.94-1.54,.22-.05,.43-.1,.64-.15v-.66c-.22,.05-.43,.1-.64,.15-.16,.04-.33,.08-.49,.12-1.89,.46-3.77,.95-5.62,1.46-.05,.01-.1,.03-.15,.04-6.53,1.81-12.94,4.01-19.2,6.59-2.2,.52-4.4-.84-4.94-3.03l-3.23-13.29c-.53-2.2,.82-4.42,3.02-4.96l.05-.02c4.17-1.73,8.42-3.29,12.69-4.68,.41-.14,.82-.27,1.24-.4,1.01-.32,2.02-.63,3.04-.93,1.07-.32,2.14-.63,3.2-.92l.21-.06c1.04-.29,2.09-.56,3.14-.83,2.33-.59,4.67-1.14,7.03-1.63,.21-.05,.43-.09,.64-.13v-.65c-.22,.04-.43,.08-.64,.13Z" fill="#6c63ff"/><path d="M83.38,99.07v23.19c-.21,.05-.43,.1-.64,.15-2.02,.49-4.02,1.01-6.02,1.57-.08-.09-.16-.18-.23-.27-4.22-4.94-6.07-11.49-5.07-17.91,.02-.11,.04-.22,.05-.32,.02-.1,.04-.21,.05-.31,.2-1.05,.47-2.09,.82-3.11,.04-.12,.08-.24,.13-.37,.98-.27,1.97-.53,2.96-.78,2.42-.62,4.85-1.19,7.3-1.7,.21-.05,.43-.09,.64-.13Z" fill="url(#Namnlös_övertoning_64-2)"/><path d="M68.41,120.07c-.5-1.23-1.91-1.83-3.15-1.33l-8.36,3.39c-1.24,.5-1.83,1.91-1.32,3.15,.5,1.23,1.91,1.83,3.14,1.33l8.36-3.39c1.23-.5,1.83-1.91,1.33-3.15Zm-1.57,2.55l-8.36,3.39c-.91,.37-1.94-.07-2.31-.98s.07-1.94,.98-2.31h0l8.36-3.39c.91-.37,1.94,.07,2.31,.97s-.07,1.94-.97,2.31Z" fill="#6c63ff"/><path d="M83.38,104.99v12.63c-.21,.05-.43,.1-.64,.13-3.56,.5-6.85-1.98-7.35-5.54-.25-1.78,.25-3.59,1.38-4.99,.07-.09,.15-.18,.24-.27,.08-.09,.16-.18,.25-.26,1.44-1.43,3.47-2.1,5.48-1.82,.22,.03,.43,.07,.64,.13Z" fill="#fff"/><path d="M82.73,83.02v32.14c.22-.07,.43-.14,.64-.2v-31.65c-.22-.1-.43-.2-.64-.29Zm0,0v32.14c.22-.07,.43-.14,.64-.2v-31.65c-.22-.1-.43-.2-.64-.29Zm0,0v32.14c.22-.07,.43-.14,.64-.2v-31.65c-.22-.1-.43-.2-.64-.29Zm0,2.35v37.04c.22-.05,.43-.1,.64-.15v-36.71c-.22-.06-.43-.13-.64-.18h0Zm0,0v37.04c.22-.05,.43-.1,.64-.15v-36.71c-.22-.06-.43-.13-.64-.18h0Zm0,0v37.04c.22-.05,.43-.1,.64-.15v-36.71c-.22-.06-.43-.13-.64-.18h0Zm0,0v37.04c.22-.05,.43-.1,.64-.15v-36.71c-.22-.06-.43-.13-.64-.18h0Zm0,0v37.37c.22-.05,.43-.1,.64-.15v-37.04c-.22-.06-.43-.13-.64-.18h0Zm140.5-30.45H89.42c-3.69,0-6.68,3-6.69,6.69v99.35c0,3.69,3,6.68,6.69,6.68H223.23c3.69,0,6.68-2.99,6.68-6.68V61.6c0-3.69-2.99-6.68-6.68-6.69h0Zm6.04,106.04c0,3.33-2.7,6.04-6.04,6.04H89.42c-3.33,0-6.04-2.7-6.04-6.04V61.6c0-3.33,2.71-6.04,6.04-6.04H223.23c3.33,0,6.04,2.71,6.04,6.04v99.35ZM82.73,85.37v36.71c.22-.05,.43-.1,.64-.15v-36.38c-.22-.06-.43-.13-.64-.18h0Zm0,0v37.04c.22-.05,.43-.1,.64-.15v-36.71c-.22-.06-.43-.13-.64-.18h0Zm0,0v37.04c.22-.05,.43-.1,.64-.15v-36.71c-.22-.06-.43-.13-.64-.18h0Zm0,0v37.04c.22-.05,.43-.1,.64-.15v-36.71c-.22-.06-.43-.13-.64-.18h0Zm0-2.35v32.14c.22-.07,.43-.14,.64-.2v-31.65c-.22-.1-.43-.2-.64-.29Zm0,0v32.14c.22-.07,.43-.14,.64-.2v-31.65c-.22-.1-.43-.2-.64-.29Z" fill="#2f2e41"/><path d="M54.05,117.03c-.48-1.11-1.77-1.63-2.88-1.15-.12,.05-.23,.11-.34,.18l-6.17-4.74-.29,4.04,5.91,3.89c.73,.97,2.12,1.16,3.09,.43,.81-.61,1.1-1.7,.69-2.64Z" fill="#ffb6b6"/><path d="M29.17,88.4l-2.03-.96s-3.27,.92-1.68,5.25l9.62,17.93,11.75,6.88,3.66-3.25-11.76-9.3-9.56-16.55Z" fill="#3f3d56"/></g></svg>