<?xml version="1.0" encoding="UTF-8"?><svg id="Lager_1" xmlns="http://www.w3.org/2000/svg" xmlns:xlink="http://www.w3.org/1999/xlink" viewBox="0 0 329.97 129.47"><defs><radialGradient id="Namnlös_övertoning_7" cx="43.72" cy="378.02" fx="43.72" fy="378.02" r="59.66" gradientTransform="translate(-111.85 -303.84) rotate(-20.35)" gradientUnits="userSpaceOnUse"><stop offset=".14" stop-color="#8cc63f"/><stop offset=".68" stop-color="#fba700"/><stop offset=".95" stop-color="#ffe534"/></radialGradient><filter id="luminosity-noclip-2" x="38.62" y="35.22" width="40.38" height="35.02" color-interpolation-filters="sRGB" filterUnits="userSpaceOnUse"><feFlood flood-color="#fff" result="bg"/><feBlend in="SourceGraphic" in2="bg"/></filter><filter id="luminosity-noclip-3" x="38.62" y="-8496.54" width="40.38" height="32766" color-interpolation-filters="sRGB" filterUnits="userSpaceOnUse"><feFlood flood-color="#fff" result="bg"/><feBlend in="SourceGraphic" in2="bg"/></filter><mask id="mask-1" x="38.62" y="-8496.54" width="40.38" height="32766" maskUnits="userSpaceOnUse"/><radialGradient id="radial-gradient" cx="66.33" cy="37.94" fx="66.33" fy="37.94" r="35.13" gradientTransform="matrix(1, 0, 0, 1, 0, 0)" gradientUnits="userSpaceOnUse"><stop offset="0" stop-color="#000"/><stop offset="1" stop-color="#fff"/></radialGradient><mask id="mask" x="38.62" y="35.22" width="40.38" height="35.02" maskUnits="userSpaceOnUse"><g filter="url(#luminosity-noclip-2)"><g mask="url(#mask-1)"><path d="M74.66,70.24l3.17-1.17,1.07-6.29c.47-2.74-.57-5.53-2.71-7.3l-22.28-18.46c-2.14-1.78-5.07-2.27-7.68-1.31l-7.22,2.68-.39,2.31,7.36-2.73c2.39-.89,5.07-.43,7.04,1.2l20.43,16.93c1.96,1.63,2.91,4.18,2.48,6.69l-1.27,7.46Z" fill="url(#radial-gradient)" mix-blend-mode="multiply"/></g></g></mask><radialGradient id="radial-gradient-2" cx="66.33" cy="37.94" fx="66.33" fy="37.94" r="35.13" gradientTransform="matrix(1, 0, 0, 1, 0, 0)" gradientUnits="userSpaceOnUse"><stop offset="0" stop-color="#f49a31"/><stop offset="1" stop-color="#ffe334"/></radialGradient><radialGradient id="Namnlös_övertoning_17" cx="43.33" cy="72.4" fx="43.33" fy="72.4" r="31.52" gradientTransform="matrix(1, 0, 0, 1, 0, 0)" gradientUnits="userSpaceOnUse"><stop offset=".14" stop-color="#8cc63f"/><stop offset=".74" stop-color="#39b54a"/></radialGradient><radialGradient id="radial-gradient-3" cx="63.1" cy="50.11" fx="63.1" fy="50.11" r="68.21" gradientTransform="matrix(1, 0, 0, 1, 0, 0)" gradientUnits="userSpaceOnUse"><stop offset=".2" stop-color="#fee234"/><stop offset=".48" stop-color="#a3e659"/><stop offset="1" stop-color="#01ba5c"/></radialGradient><radialGradient id="radial-gradient-4" cx="64.25" cy="360.04" fx="64.25" fy="360.04" r="76.92" gradientTransform="translate(-111.85 -303.84) rotate(-20.35)" gradientUnits="userSpaceOnUse"><stop offset="0" stop-color="#fc54b9"/><stop offset="1" stop-color="#fba700"/></radialGradient><radialGradient id="radial-gradient-5" cx="48.98" cy="44.49" fx="48.98" fy="44.49" r="32.05" gradientTransform="matrix(1, 0, 0, 1, 0, 0)" gradientUnits="userSpaceOnUse"><stop offset=".14" stop-color="#fdcc04"/><stop offset=".82" stop-color="#ffe500"/></radialGradient></defs><g><path d="M85.69,49.4l-20.43-16.93c-1.96-1.63-4.65-2.08-7.04-1.2l-24.87,9.22c-2.39,.89-4.13,2.98-4.56,5.5l-3.18,18.69,7.36-2.73c2.39-.89,5.07-.43,7.04,1.2l20.43,16.93c1.96,1.63,2.91,4.18,2.48,6.69l-1.27,7.46,17.52-6.5c2.39-.89,4.13-2.98,4.56-5.5l4.45-26.15c.43-2.51-.52-5.07-2.48-6.69Z" fill="url(#Namnlös_övertoning_7)"/><g mask="url(#mask)"><path d="M74.66,70.24l3.17-1.17,1.07-6.29c.47-2.74-.57-5.53-2.71-7.3l-22.28-18.46c-2.14-1.78-5.07-2.27-7.68-1.31l-7.22,2.68-.39,2.31,7.36-2.73c2.39-.89,5.07-.43,7.04,1.2l20.43,16.93c1.96,1.63,2.91,4.18,2.48,6.69l-1.27,7.46Z" fill="url(#radial-gradient-2)" opacity=".52"/></g><path d="M60.26,71.77l-20.43-16.93c-1.96-1.63-2.91-4.18-2.48-6.69l1.27-7.46-17.52,6.5c-2.39,.89-4.13,2.98-4.56,5.5l-4.45,26.15c-.43,2.51,.52,5.07,2.48,6.69l20.43,16.93c1.96,1.63,4.65,2.08,7.04,1.2l24.87-9.22c2.39-.89,4.13-2.98,4.56-5.5l3.18-18.69-7.36,2.73c-2.39,.89-5.07,.43-7.04-1.2Z" fill="url(#Namnlös_övertoning_17)"/><path d="M38.62,40.69l-2.23,.83-1.2,7.07c-.45,2.66,.55,5.36,2.63,7.08l21.61,17.91c2.08,1.72,4.92,2.2,7.45,1.27l7.47-2.77,.31-1.83-7.36,2.73c-2.39,.89-5.07,.43-7.04-1.2l-20.43-16.93c-1.96-1.63-2.91-4.18-2.48-6.69l1.27-7.46Z" fill="url(#radial-gradient-3)"/><path d="M73.44,56.09l-20.43-16.93c-1.96-1.63-4.65-2.08-7.04-1.2l-7.36,2.73-1.27,7.46c-.43,2.51,.52,5.07,2.48,6.69l20.43,16.93c1.96,1.63,4.65,2.08,7.04,1.2l7.36-2.73,1.27-7.46c.43-2.51-.52-5.07-2.48-6.69Z" fill="url(#radial-gradient-4)"/><path d="M73.44,56.09l-20.43-16.93c-1.96-1.63-4.65-2.08-7.04-1.2l-7.36,2.73-1.27,7.46c-.43,2.51,.52,5.07,2.48,6.69l20.43,16.93c1.96,1.63,4.65,2.08,7.04,1.2l7.36-2.73,1.27-7.46c.43-2.51-.52-5.07-2.48-6.69Z" fill="url(#radial-gradient-5)"/></g><g><path d="M106.49,56.11c0,2.38,2.22,3.06,4.69,3.79,2.87,.84,5.99,1.76,5.99,5.56,0,4.15-3.31,5.77-6.94,5.77-4.09,0-6.64-1.63-7.15-5.66l2.38-.35c.46,2.09,1.44,3.9,4.8,3.9,2.11,0,4.36-.7,4.36-3.31,0-2.44-2.2-3.09-4.61-3.77-2.93-.81-6.07-1.65-6.07-5.69,0-3.36,2.82-5.42,6.61-5.42,3.44,0,6.04,1.33,6.45,5.53l-2.33,.27c-.3-1.87-1.06-3.69-4.09-3.69s-4.09,1.33-4.09,3.06Z"/><path d="M120.89,70.9v-19.62h6.75c4.63,0,5.91,2.11,5.91,4.8s-1.76,4.12-3.9,4.61v.05c3.2,.41,4.69,2.14,4.69,4.85,0,4.01-3.01,5.31-7.26,5.31h-6.18Zm5.31-11.03c2.14,0,4.82-.6,4.82-3.44,0-2.44-1.41-3.09-4.09-3.09h-3.58v6.53h2.85Zm.51,8.94c2.85,0,4.99-.43,4.99-3.39,0-2.6-1.95-3.5-4.44-3.5h-3.9v6.88h3.36Z"/></g><g><path d="M148.05,74.33h-3.7v-29.14h3.7v29.14Z"/><path d="M172.4,74.33h-3.66v-13.48c0-2.86-1.05-4.43-3.86-4.43-2.37,0-4.95,1.53-6.04,2.5v15.42h-3.66v-20.69h3.22l.2,2.46c2.01-1.61,4.59-2.9,7.45-2.9,4.43,0,6.36,2.42,6.36,7.08v14.05Z"/><path d="M192.9,59.19l-3.3,.72c-.48-2.37-1.29-3.82-4.31-3.82s-3.99,1.33-3.99,2.9c0,2.13,1.69,2.74,4.59,3.34,3.78,.8,7.37,1.57,7.37,6.2,0,3.94-3.06,6.28-8.09,6.28-4.75,0-7.61-1.85-8.25-6l3.26-.89c.56,2.21,1.49,3.99,5.15,3.99,2.5,0,4.31-.77,4.31-2.98s-1.69-2.7-4.51-3.26c-3.38-.68-7.45-1.41-7.45-6.24,0-4.19,3.46-6.24,7.65-6.24,4.91,0,6.92,2.33,7.57,6Z"/><path d="M198.13,53.64h3.66v13.48c0,2.86,.68,4.43,3.74,4.43,2.37,0,4.91-1.53,6-2.54v-15.38h3.66v20.69h-3.18l-.24-2.38c-2.01,1.65-4.47,2.78-7.33,2.78-4.39,0-6.32-2.42-6.32-7.04v-14.05Z"/><path d="M232.59,57.02c-2.58-.36-5.63,.68-7.33,2.25v15.05h-3.66v-20.69h3.06l.28,2.98c1.81-2.46,3.99-3.42,6.88-3.42,.24,0,.4,0,.76,.04v3.78Z"/><path d="M250.51,70.42c0,1.13,.2,1.61,1.25,1.61,.36,0,.72-.08,1.25-.24l.16,2.29c-.8,.4-1.85,.64-2.86,.64-2.05,0-2.98-1.13-3.18-2.46-1.61,1.61-3.74,2.54-6.64,2.54-5.23,0-6.12-3.54-6.12-5.55,0-5.51,4.87-7.04,10.71-7.04,.64,0,1.25,.04,1.81,.08v-2.01c0-2.62-.72-4.23-4.11-4.23-2.86,0-3.94,1.13-4.39,3.42l-3.22-.6c.64-3.86,3.14-5.68,7.93-5.68,5.11,0,7.41,1.97,7.41,7.12v10.1Zm-3.58-5.47c-.56-.08-1.33-.12-2.09-.12-2.86,0-6.68,.28-6.68,3.82,0,1.77,.64,3.3,3.46,3.3,2.13,0,4.19-1.13,5.31-2.33v-4.67Z"/><path d="M274.54,74.33h-3.66v-13.48c0-2.86-1.05-4.43-3.86-4.43-2.37,0-4.95,1.53-6.04,2.5v15.42h-3.66v-20.69h3.22l.2,2.46c2.01-1.61,4.59-2.9,7.45-2.9,4.43,0,6.36,2.42,6.36,7.08v14.05Z"/><path d="M279.46,64.18c0-7.21,3.7-10.99,9.9-10.99,4.63,0,7.69,2.42,7.97,7.21l-3.5,.48c-.32-3.06-1.73-4.63-4.63-4.63s-5.92,1.61-5.92,7.49,2.5,8.01,5.8,8.01c2.82,0,4.63-1.37,5.15-4.43l3.22,.68c-.68,4.79-4.35,6.8-8.49,6.8-6.84,0-9.5-4.43-9.5-10.63Z"/><path d="M301.12,64.02c0-7.57,4.43-10.83,9.74-10.83,5.8,0,8.21,3.82,8.21,8.94,0,.81-.04,1.73-.16,2.7h-13.93c.16,5.27,2.5,6.92,5.8,6.92,2.94,0,4.31-1.33,4.87-3.66l3.22,.72c-.84,4.03-4.07,6-8.21,6-7.33,0-9.54-5.11-9.54-10.79Zm14.17-2.09c0-3.7-1.41-5.76-4.67-5.76-2.74,0-5.39,1.65-5.59,5.76h10.26Z"/></g></svg>