<?xml version="1.0" encoding="UTF-8"?><svg id="Lager_1" xmlns="http://www.w3.org/2000/svg" viewBox="0 0 260 224"><path d="M147.74,198.07c-1.68-2.35-3.94-4.06-6.79-4.7-2.49-.56-5.04-.46-7.57-.45l-31.96,.25c-2.74,.02-5.36,2.39-5.23,5.23,.13,2.82,2.3,5.26,5.23,5.23,9.36-.07,18.72-.14,28.08-.22,2.21-.02,4.41-.06,6.62-.05,.5,0,.99,.03,1.48,.03,.12,0,.21,0,.27,0,.02,0,.03,0,.05,.01,.26,.07,.52,.12,.78,.19-.09,0,.17,.16,.3,.22,.02,.04,.06,.1,.12,.19,.09,.17,.35,.67,.36,.66,.4,1,.72,2.03,.98,3.07,.61,2.31,.74,2.79,.83,4.95,.11,2.73,2.33,5.36,5.23,5.23,2.74-.12,5.35-2.3,5.23-5.23-.2-4.94-1.07-10.48-4.02-14.62Z" fill="#e6e6e6"/><path d="M103.3,209.88c-.6-3.64-1.19-7.28-1.8-10.91-.62-3.69-1.89-7.06-4.76-9.49-.77-.65-1.56-1.25-2.36-1.85-.28-.21-.56-.42-.84-.64l-.04-.03s-.07-.06-.12-.1c-1.2-1.01-2.35-2.07-3.45-3.19-.98-1-1.91-2.04-2.8-3.12-.22-.27-.44-.54-.66-.82-.04-.05-.24-.31-.37-.48-.12-.17-.35-.48-.39-.53-.25-.36-.5-.72-.75-1.09-1.67-2.5-3.11-5.14-4.31-7.89-.12-.27-.24-.55-.35-.82-.03-.08-.07-.19-.12-.34-.24-.67-.48-1.33-.71-2.01-.47-1.43-.88-2.89-1.21-4.36-.17-.73-.32-1.46-.45-2.2-.07-.38-.13-.76-.19-1.14,0-.06-.07-.47-.1-.7-.03-.23-.07-.64-.08-.71-.04-.38-.07-.77-.1-1.15-.07-.86-.11-1.73-.14-2.6-.04-1.54-.01-3.08,.08-4.62,.05-.87,.13-1.73,.23-2.59v-.13s.03-.08,.03-.14c.07-.48,.14-.95,.23-1.43,.31-1.8,.72-3.58,1.22-5.34,.24-.83,.49-1.65,.77-2.47,.12-.36,.25-.72,.38-1.08,0,.02,.39-.99,.39-1.02,1.57-3.71,4.13-7.08,4.14-11.29,0-2.85-2.41-5.58-5.23-5.45-2.93,.11-5.24,2.52-5.23,5.45,0,.06,0,.12,0,.17-.03,.09-.05,.16-.07,.23-.31,.66-.68,1.3-1.02,1.94-.92,1.77-1.7,3.61-2.45,5.47-1.22,3.03-2.15,6.16-2.79,9.36-1.38,7.02-1.49,14.22-.32,21.28,2.03,12.37,8.72,24.21,18.02,32.17,.81,.69,1.63,1.36,2.47,2.01,.35,.27,.69,.54,1.04,.8,.17,.12,.85,.67,.55,.4,.65,.55,.92,.83,1.09,1.24,.02,.09,.06,.22,.1,.4,.12,.46,.23,.92,.32,1.38,.81,4.07,1.37,8.21,2.05,12.31,.46,2.82,3.93,4.65,6.44,3.81,2.92-.98,4.15-3.68,3.66-6.7Z" fill="#e6e6e6"/><path d="M148.27,220.45c-4.58,.01-8.3-3.68-8.32-8.26v-5.97c-6.25,.7-27.65,.54-33.79-.45v6.18c-.03,4.6-3.79,8.29-8.38,8.26-4.55-.03-8.23-3.71-8.26-8.26v-12.13c-16.92-9.4-27.43-27.22-27.48-46.58,0-16.3,7.39-31.51,20.27-41.72,8.37-6.66,18.55-10.67,29.22-11.51,1.45-.11,2.9-.17,4.33-.17,5.02,0,27.68,.78,33.36,2.41l12.96-12.86c.39-.39,.98-.51,1.49-.3,.51,.2,.85,.7,.85,1.26v2.05l2.52-2.5c.39-.39,.98-.51,1.49-.3,.51,.2,.85,.7,.85,1.26v22.85c21.84,19.69,23.58,53.35,3.89,75.19-4.69,5.2-10.35,9.42-16.67,12.43v10.85c-.02,4.58-3.75,8.27-8.32,8.26Zm-7.67-14.97v6.71c.03,4.23,3.5,7.64,7.73,7.6,4.19-.03,7.57-3.42,7.6-7.6v-11.26l.19-.09c8.87-4.21,16.41-10.8,21.76-19.03,14.1-21.71,10.25-50.46-9.06-67.7l-.11-.1v-23.15c0-.29-.17-.55-.44-.65-.27-.11-.58-.05-.78,.15l-3.64,3.6v-3.61c0-.29-.17-.55-.44-.65-.27-.11-.58-.05-.78,.16l-13.24,13.14-.19-.06c-5.28-1.65-28.3-2.44-33.36-2.44-1.41,0-2.85,.06-4.28,.17-10.54,.83-20.59,4.78-28.86,11.37-12.72,10.09-20.02,25.11-20.02,41.2,.04,19.19,10.5,36.84,27.31,46.1l.17,.09v12.52c.04,4.23,3.5,7.64,7.73,7.6,4.18-.03,7.57-3.42,7.6-7.6v-6.96l.39,.07c5.51,1.04,28.73,1.2,34.34,.46l.37-.05Z" fill="#3f3d56"/><path d="M103.93,64.23l-36.22,10.89c-2.4,.72-3.76,3.26-3.03,5.66,.72,2.4,3.25,3.76,5.65,3.04l31.7-9.53,.66-.2c.13-3.42,1.06-6.77,2.71-9.77-.21-.09-.43-.15-.65-.17-.27-.03-.55,0-.81,.08Z" fill="#ffd059"/><path d="M69.69,86.13c-.99,0-1.86-.63-2.17-1.57l-2.27-6.84c-.4-1.2,.25-2.5,1.45-2.89h0l29.48-9.77c1.2-.4,2.5,.25,2.89,1.45h0l2.27,6.84c.39,1.17-.22,2.44-1.37,2.87-.03,.01-.05,.02-.08,.03l-29.48,9.77c-.23,.08-.48,.12-.72,.12Z" fill="#2f2e41"/><path d="M124.9,52.09c-12.37,0-22.5,9.83-22.89,22.19,0,.23,0,.47,0,.7,0,12.65,10.25,22.9,22.9,22.9s22.9-10.25,22.9-22.9-10.25-22.9-22.9-22.9h0Zm0,45.14c-12.28-.01-22.23-9.96-22.24-22.24,0-.3,0-.61,.02-.9,.5-12.27,10.85-21.82,23.13-21.32,12.27,.5,21.82,10.85,21.32,23.13-.48,11.92-10.29,21.34-22.22,21.34h0Z" fill="#3f3d56"/><path d="M144.2,74.98c0,10.66-8.64,19.3-19.3,19.3s-19.3-8.64-19.3-19.3c0-.61,.03-1.21,.08-1.81,1-10.61,10.41-18.4,21.02-17.41,9.91,.93,17.49,9.26,17.49,19.21Z" fill="#e6e6e6"/><path d="M130.65,76.27c-.47-.62-1.08-1.1-1.79-1.42-.87-.37-1.77-.66-2.69-.88v-5.25c1.41,.21,2.74,.82,3.82,1.74l1.07-2.27c-.61-.55-1.32-.98-2.08-1.29-.85-.34-1.73-.57-2.64-.68v-2.66h-2.47v2.69c-.95,.11-1.87,.42-2.7,.91-.75,.44-1.37,1.06-1.83,1.79-.44,.72-.66,1.54-.65,2.38-.04,.91,.22,1.81,.75,2.55,.49,.64,1.13,1.15,1.86,1.48,.88,.38,1.8,.68,2.73,.91v5.03c-1.67-.13-3.25-.76-4.55-1.82l-1.07,2.28c.72,.6,1.55,1.07,2.43,1.38,.97,.35,1.98,.56,3.01,.63v2.64h2.47v-2.69c1.37-.15,2.66-.74,3.67-1.68,.9-.86,1.39-2.06,1.37-3.3,.04-.88-.21-1.75-.73-2.47Zm-6.61-2.86c-.6-.18-1.16-.48-1.65-.88-.39-.35-.6-.85-.58-1.37-.02-.58,.2-1.15,.6-1.57,.44-.45,1.01-.74,1.63-.85v4.67Zm3.68,6.96c-.42,.43-.96,.71-1.55,.81v-4.33c.56,.15,1.09,.41,1.55,.78,.35,.3,.55,.75,.53,1.21,.02,.56-.17,1.11-.53,1.54h0Z" fill="#ff67ed"/><path d="M70.74,113.83c-1.04,0-1.95-.7-2.22-1.71l-1.23-4.67c-.32-1.22,.41-2.47,1.63-2.8l38.91-10.28c1.22-.32,2.47,.41,2.8,1.63l1.04,3.95-.2,.02c-9.98,.78-19.53,4.39-27.51,10.43l-.06,.03-12.58,3.32c-.19,.05-.38,.08-.58,.08Z" fill="#2f2e41"/><path d="M64.3,136.89c-4.56-.67-8.93-2.32-12.8-4.84-1.92-1.24-3.69-2.7-5.29-4.33-1.58-1.61-3.09-3.44-3.87-5.59-.75-1.98-.71-4.18,.11-6.14,.81-1.94,2.36-3.49,4.31-4.29,1.96-.78,4.33-.86,6.23,0,.91,.4,1.69,1.03,2.28,1.83,.27,.37,.47,.79,.59,1.23,.11,.4,.12,.82,.03,1.23-.23,.82-.8,1.5-1.56,1.87-.83,.43-1.74,.7-2.67,.81-.94,.13-2.28,.24-3.03-.51-.15-.15-.28-.33-.36-.53-.06-.15-.08-.32-.06-.48-.01,.07,.05-.15,.04-.15-.01,.03-.06,.11,0-.01,.02-.04,.05-.08,.08-.12-.02,.03-.08,.09,.02,0,.08-.09,.18-.15,.3-.18,.05-.01,.09-.02,.14-.04,.12-.03-.12,0,0,0,.05,0,.09,0,.14,0,.12,0-.11-.03,0,0,.04,.01,.09,.02,.13,.03,.09,.03-.07-.07,0,0,.07,.08-.08-.08,0,0,.04,.04,.08,.08,.12,.13,.3,.3,.78,.3,1.08,0,.29-.3,.29-.78,0-1.08-.76-.94-2.25-.71-3.01,.09-.98,1.01-.59,2.61,.36,3.49,1.07,1,2.6,1.07,3.98,.9,1.17-.11,2.31-.43,3.36-.95,1.05-.51,1.87-1.4,2.3-2.48,.39-1.17,.27-2.45-.35-3.52-1.22-2.29-3.75-3.47-6.24-3.67-2.6-.2-5.17,.64-7.14,2.34-1.88,1.69-3.04,4.04-3.23,6.57-.22,2.62,.8,5.16,2.28,7.27,1.55,2.14,3.4,4.06,5.49,5.68,4.09,3.26,8.88,5.53,14,6.6,.61,.13,1.22,.23,1.84,.32,.41,.1,.82-.14,.94-.54,.11-.41-.13-.83-.54-.94h0Z" fill="#3f3d56"/><path d="M137.37,103.57c-6.69-.09-13.35,.08-20,.51-2.27,.15-4.24,.95-4.24,2.3,0,1.13,1.95,2.45,4.24,2.3,6.64-.43,13.31-.6,20-.51,5.45,.08,5.45-4.52,0-4.6Z" fill="#ccc"/><path d="M127.49,107.94c-.72,0-17.7-.03-17.7-2.37s16.98-2.37,17.7-2.37,17.7,.03,17.7,2.37-16.98,2.37-17.7,2.37Zm-17.03-2.37c.46,.71,6.7,1.72,17.03,1.72s16.57-1.01,17.03-1.72c-.46-.71-6.7-1.72-17.03-1.72s-16.57,1.01-17.03,1.72h0Z" fill="#3f3d56"/><path d="M181.35,169.58c3.76-.1,8.43-.23,12.04-2.87,2.17-1.65,3.5-4.18,3.64-6.9,.07-2.08-.68-3.89-2.11-5.11-1.88-1.59-4.63-1.96-7.59-1.09l3.07-22.42-2.25-.31-3.61,26.36,1.88-.86c2.18-1,5.17-1.51,7.03,.06,.93,.83,1.41,2.05,1.31,3.29-.11,2.03-1.1,3.91-2.71,5.15-2.8,2.05-6.53,2.31-10.76,2.43l.06,2.27Z" fill="#3f3d56"/><rect x="162.87" y="133.12" width="12.24" height="2.27" fill="#3f3d56"/><path d="M76.28,124.29c-1.13,0-2.08-.82-2.26-1.94l-.75-4.77c-.19-1.25,.66-2.42,1.91-2.62l39.75-6.23c1.25-.19,2.42,.66,2.62,1.91l.75,4.77c.19,1.25-.66,2.42-1.91,2.62l-39.75,6.23c-.12,.02-.24,.03-.36,.03Z" fill="#2f2e41"/><circle cx="59.83" cy="51.71" r="16.68" fill="#ff67ed"/><path d="M69.28,56.03c.53-.19,1.02-.48,1.43-.88,.55-.56,.82-1.34,.74-2.12-.05-.56-.35-1.06-.82-1.36-.6-.37-1.4-.36-2.21,.02l-.09-6.51h-.65l.11,7.66,.5-.33c.58-.38,1.41-.65,2-.29,.3,.2,.49,.52,.51,.88,.06,.58-.14,1.16-.55,1.58-.71,.7-1.76,.94-2.96,1.16l.12,.64c.64-.1,1.26-.25,1.87-.46Z" fill="#2f2e41"/><rect x="71.6" y="44.98" width="3.52" height=".65" transform="translate(-5.96 11.5) rotate(-8.61)" fill="#2f2e41"/><rect x="60.61" y="46.64" width="3.52" height=".65" transform="translate(-6.33 9.87) rotate(-8.61)" fill="#2f2e41"/><path d="M70.85,124c-1.23,0-2.33-.77-2.76-1.92l-11.5-30.8c-2.93-7.87,1.07-16.62,8.92-19.56l9.35-3.49c.73-.27,1.54-.25,2.25,.08,.71,.32,1.26,.9,1.53,1.63l21.31,40.23c.58,1.52-.18,3.22-1.7,3.8h-.02l-26.35,9.85c-.33,.12-.68,.19-1.03,.19Z" fill="#2f2e41"/><path d="M72.03,69.28l21.14,28.27-14.3-27.97c-.5-1.37-2.01-2.08-3.38-1.59h0l-3.45,1.29Z" fill="#e6e6e6"/><path d="M105.51,90.75l-37.75-2.43c-2.5-.16-4.4-2.32-4.24-4.82s2.32-4.4,4.82-4.24h0l37.75,2.43c1.17,.08,2.06,1.09,1.99,2.26h0l-.31,4.82c-.08,1.17-1.09,2.06-2.26,1.99h0Z" fill="#ffd059"/><path d="M95.42,92.31s-.1,0-.15,0h0l-31-2c-1.26-.08-2.22-1.17-2.14-2.43h0l.53-8.23c.08-1.26,1.17-2.22,2.43-2.14h0l31,2c1.26,.08,2.22,1.17,2.14,2.43l-.53,8.23c-.06,.9-.64,1.68-1.49,2-.25,.1-.52,.14-.8,.14Z" fill="#2f2e41"/><path d="M59.64,40.62c2.19-1.89,5.21-.2,7.73-.49,2.41-.28,4.31-2.44,4.79-4.74,.57-2.68-.82-5.36-2.87-7.03-2.24-1.83-5.22-2.35-8.04-2.01-3.23,.39-6.19,1.89-8.84,3.72-2.56,1.7-4.91,3.7-7.01,5.94-1.88,2.08-3.48,4.55-3.98,7.35-.46,2.54-.11,5.36,1.39,7.51,.8,1.1,1.86,1.98,3.1,2.55,1.29,.63,2.66,1.08,3.91,1.8,1.89,1.08,3.72,3.32,3.13,5.66-.13,.51-.38,.98-.73,1.37-.42,.47-1.18-.15-.76-.62,.74-.83,.71-1.93,.32-2.91-.47-1.11-1.31-2.03-2.37-2.6-1.31-.75-2.75-1.21-4.09-1.89-1.28-.62-2.39-1.54-3.24-2.69-1.6-2.23-2.08-5.12-1.72-7.81,.39-2.9,1.88-5.54,3.75-7.75,2.03-2.4,4.53-4.44,7.08-6.27,2.74-1.96,5.76-3.62,9.11-4.22,2.9-.52,6.05-.2,8.58,1.38,2.37,1.48,4.18,4.01,4.37,6.85,.13,2.63-1.17,5.12-3.39,6.52-1.12,.67-2.43,.97-3.73,.86-1.39-.09-2.79-.52-4.19-.4-.63,.04-1.24,.28-1.72,.7-.48,.41-1.05-.39-.58-.8h0Z" fill="#2f2e41"/><path d="M251.61,220.6H10.11c-.22,0-.39-.18-.39-.39,0-.21,.17-.39,.39-.39H251.61c.22,0,.39,.18,.39,.39,0,.21-.17,.39-.39,.39Z" fill="#3f3d56"/></svg>