<?xml version="1.0" encoding="UTF-8"?><svg id="Lager_1" xmlns="http://www.w3.org/2000/svg" xmlns:xlink="http://www.w3.org/1999/xlink" viewBox="0 0 329.97 129.47"><defs><radialGradient id="radial-gradient" cx="71.79" cy="239.17" fx="71.79" fy="239.17" r="59.66" gradientTransform="translate(-88.89 -175.88) rotate(-20.35)" gradientUnits="userSpaceOnUse"><stop offset="0" stop-color="#fc54b9"/><stop offset=".68" stop-color="#fba700"/><stop offset=".95" stop-color="#ffe534"/></radialGradient><filter id="luminosity-noclip-2" x="26.62" y="47.22" width="40.38" height="35.02" color-interpolation-filters="sRGB" filterUnits="userSpaceOnUse"><feFlood flood-color="#fff" result="bg"/><feBlend in="SourceGraphic" in2="bg"/></filter><filter id="luminosity-noclip-3" x="26.62" y="-8496.54" width="40.38" height="32766" color-interpolation-filters="sRGB" filterUnits="userSpaceOnUse"><feFlood flood-color="#fff" result="bg"/><feBlend in="SourceGraphic" in2="bg"/></filter><mask id="mask-1" x="26.62" y="-8496.54" width="40.38" height="32766" maskUnits="userSpaceOnUse"/><radialGradient id="radial-gradient-2" cx="54.33" cy="49.94" fx="54.33" fy="49.94" r="35.13" gradientTransform="matrix(1, 0, 0, 1, 0, 0)" gradientUnits="userSpaceOnUse"><stop offset="0" stop-color="#000"/><stop offset="1" stop-color="#fff"/></radialGradient><mask id="mask" x="26.62" y="47.22" width="40.38" height="35.02" maskUnits="userSpaceOnUse"><g filter="url(#luminosity-noclip-2)"><g mask="url(#mask-1)"><path d="M62.66,82.24l3.17-1.17,1.07-6.29c.47-2.74-.57-5.53-2.71-7.3l-22.28-18.46c-2.14-1.78-5.07-2.27-7.68-1.31l-7.22,2.68-.39,2.31,7.36-2.73c2.39-.89,5.07-.43,7.04,1.2l20.43,16.93c1.96,1.63,2.91,4.18,2.48,6.69l-1.27,7.46Z" fill="url(#radial-gradient-2)" mix-blend-mode="multiply"/></g></g></mask><radialGradient id="radial-gradient-3" cx="54.33" cy="49.94" fx="54.33" fy="49.94" r="35.13" gradientTransform="matrix(1, 0, 0, 1, 0, 0)" gradientUnits="userSpaceOnUse"><stop offset="0" stop-color="#f49a31"/><stop offset="1" stop-color="#ffe334"/></radialGradient><radialGradient id="radial-gradient-4" cx="50.23" cy="55.67" fx="50.23" fy="55.67" r="63.85" gradientTransform="matrix(1, 0, 0, 1, 0, 0)" gradientUnits="userSpaceOnUse"><stop offset=".09" stop-color="#fe84f5"/><stop offset=".34" stop-color="#dc58ce"/><stop offset=".59" stop-color="#bf33ae"/><stop offset=".72" stop-color="#b525a2"/><stop offset="1" stop-color="#990182"/></radialGradient><radialGradient id="radial-gradient-5" cx="51.1" cy="62.11" fx="51.1" fy="62.11" r="68.21" gradientTransform="matrix(1, 0, 0, 1, 0, 0)" gradientUnits="userSpaceOnUse"><stop offset=".2" stop-color="#fee234"/><stop offset=".48" stop-color="#a3e659"/><stop offset="1" stop-color="#01ba5c"/></radialGradient><radialGradient id="radial-gradient-6" cx="71.79" cy="239.17" fx="71.79" fy="239.17" r="76.92" gradientTransform="translate(-88.89 -175.88) rotate(-20.35)" gradientUnits="userSpaceOnUse"><stop offset="0" stop-color="#fc54b9"/><stop offset="1" stop-color="#fba700"/></radialGradient><radialGradient id="radial-gradient-7" cx="36.98" cy="56.49" fx="36.98" fy="56.49" r="32.05" gradientTransform="matrix(1, 0, 0, 1, 0, 0)" gradientUnits="userSpaceOnUse"><stop offset=".14" stop-color="#fdcc04"/><stop offset=".82" stop-color="#ffe500"/></radialGradient><radialGradient id="Namnlös_övertoning_20" cx="-81.72" cy="1050.98" fx="-81.72" fy="1050.98" r="51.42" gradientTransform="translate(168.86 -986.25)" gradientUnits="userSpaceOnUse"><stop offset="0" stop-color="#990182"/><stop offset="0" stop-color="#9a0383" stop-opacity=".98"/><stop offset=".06" stop-color="#b425a1" stop-opacity=".72"/><stop offset=".11" stop-color="#cb42bb" stop-opacity=".5"/><stop offset=".18" stop-color="#dd5ad0" stop-opacity=".32"/><stop offset=".24" stop-color="#ec6ce0" stop-opacity=".18"/><stop offset=".31" stop-color="#f679ec" stop-opacity=".08"/><stop offset=".4" stop-color="#fc81f2" stop-opacity=".02"/><stop offset=".52" stop-color="#fe84f5" stop-opacity="0"/><stop offset=".6" stop-color="#fb80f2" stop-opacity=".03"/><stop offset=".67" stop-color="#f477e9" stop-opacity=".1"/><stop offset=".75" stop-color="#e766db" stop-opacity=".23"/><stop offset=".83" stop-color="#d650c7" stop-opacity=".41"/><stop offset=".91" stop-color="#bf32ad" stop-opacity=".64"/><stop offset=".99" stop-color="#a40f8e" stop-opacity=".93"/><stop offset="1" stop-color="#a00a8a" stop-opacity=".97"/></radialGradient></defs><g><path d="M86.69,37.4l-20.43-16.93c-1.96-1.63-4.65-2.08-7.04-1.2l-24.87,9.22c-2.39,.89-4.13,2.98-4.56,5.5l-3.18,18.69,7.36-2.73c2.39-.89,5.07-.43,7.04,1.2l20.43,16.93c1.96,1.63,2.91,4.18,2.48,6.69l-1.27,7.46,17.52-6.5c2.39-.89,4.13-2.98,4.56-5.5l4.45-26.15c.43-2.51-.52-5.07-2.48-6.69Z" fill="url(#radial-gradient)"/><g mask="url(#mask)"><path d="M62.66,82.24l3.17-1.17,1.07-6.29c.47-2.74-.57-5.53-2.71-7.3l-22.28-18.46c-2.14-1.78-5.07-2.27-7.68-1.31l-7.22,2.68-.39,2.31,7.36-2.73c2.39-.89,5.07-.43,7.04,1.2l20.43,16.93c1.96,1.63,2.91,4.18,2.48,6.69l-1.27,7.46Z" fill="url(#radial-gradient-3)" opacity=".52"/></g><path d="M48.26,83.77l-20.43-16.93c-1.96-1.63-2.91-4.18-2.48-6.69l1.27-7.46-17.52,6.5c-2.39,.89-4.13,2.98-4.56,5.5L.1,90.84c-.43,2.51,.52,5.07,2.48,6.69l20.43,16.93c1.96,1.63,4.65,2.08,7.04,1.2l24.87-9.22c2.39-.89,4.13-2.98,4.56-5.5l3.18-18.69-7.36,2.73c-2.39,.89-5.07,.43-7.04-1.2Z" fill="url(#radial-gradient-4)"/><path d="M26.62,52.69l-2.23,.83-1.2,7.07c-.45,2.66,.55,5.36,2.63,7.08l21.61,17.91c2.08,1.72,4.92,2.2,7.45,1.27l7.47-2.77,.31-1.83-7.36,2.73c-2.39,.89-5.07,.43-7.04-1.2l-20.43-16.93c-1.96-1.63-2.91-4.18-2.48-6.69l1.27-7.46Z" fill="url(#radial-gradient-5)"/><path d="M61.44,68.09l-20.43-16.93c-1.96-1.63-4.65-2.08-7.04-1.2l-7.36,2.73-1.27,7.46c-.43,2.51,.52,5.07,2.48,6.69l20.43,16.93c1.96,1.63,4.65,2.08,7.04,1.2l7.36-2.73,1.27-7.46c.43-2.51-.52-5.07-2.48-6.69Z" fill="url(#radial-gradient-6)"/><path d="M61.44,68.09l-20.43-16.93c-1.96-1.63-4.65-2.08-7.04-1.2l-7.36,2.73-1.27,7.46c-.43,2.51,.52,5.07,2.48,6.69l20.43,16.93c1.96,1.63,4.65,2.08,7.04,1.2l7.36-2.73,1.27-7.46c.43-2.51-.52-5.07-2.48-6.69Z" fill="url(#radial-gradient-7)"/></g><g opacity=".5"><path d="M55.53,129.47c-.84,0-1.52-.68-1.52-1.52s.68-1.52,1.52-1.52c21.05,0,40.44-10.57,51.87-28.28,6.43-9.96,9.83-21.51,9.83-33.41,0-16.48-6.42-31.97-18.07-43.62C87.5,9.46,72.01,3.04,55.53,3.04c-.84,0-1.52-.68-1.52-1.52S54.69,0,55.53,0c17.29,0,33.55,6.73,45.77,18.96,12.23,12.23,18.96,28.48,18.96,45.77,0,12.49-3.57,24.61-10.31,35.06-11.99,18.58-32.34,29.67-54.42,29.67Z" fill="url(#Namnlös_övertoning_20)"/></g><g><path d="M112.44,56.35c0,3.54,3.3,4.55,6.96,5.64,4.27,1.25,8.9,2.62,8.9,8.25,0,6.16-4.91,8.57-10.3,8.57-6.08,0-9.86-2.42-10.63-8.41l3.54-.52c.68,3.1,2.13,5.8,7.12,5.8,3.14,0,6.48-1.05,6.48-4.91,0-3.62-3.26-4.59-6.84-5.6-4.35-1.21-9.02-2.46-9.02-8.45,0-4.99,4.19-8.05,9.82-8.05,5.11,0,8.98,1.97,9.58,8.21l-3.46,.4c-.44-2.78-1.57-5.47-6.08-5.47s-6.08,1.97-6.08,4.55Z"/><path d="M131.93,68.02c0-7.57,4.43-10.83,9.74-10.83,5.8,0,8.21,3.82,8.21,8.94,0,.81-.04,1.73-.16,2.7h-13.93c.16,5.27,2.5,6.92,5.8,6.92,2.94,0,4.31-1.33,4.87-3.66l3.22,.72c-.84,4.03-4.07,6-8.21,6-7.33,0-9.54-5.11-9.54-10.79Zm14.17-2.09c0-3.7-1.41-5.76-4.67-5.76-2.74,0-5.39,1.65-5.59,5.76h10.26Z"/><path d="M153.91,68.18c0-7.21,3.7-10.99,9.9-10.99,4.63,0,7.69,2.42,7.97,7.21l-3.5,.48c-.32-3.06-1.73-4.63-4.63-4.63s-5.92,1.61-5.92,7.49,2.5,8.01,5.8,8.01c2.82,0,4.63-1.37,5.15-4.43l3.22,.68c-.68,4.79-4.35,6.8-8.49,6.8-6.84,0-9.5-4.43-9.5-10.63Z"/><path d="M176.77,57.64h3.66v13.48c0,2.86,.68,4.43,3.74,4.43,2.37,0,4.91-1.53,6-2.54v-15.38h3.66v20.69h-3.18l-.24-2.38c-2.01,1.65-4.47,2.78-7.33,2.78-4.39,0-6.32-2.42-6.32-7.04v-14.05Z"/><path d="M211.23,61.02c-2.58-.36-5.63,.68-7.33,2.25v15.05h-3.66v-20.69h3.06l.28,2.98c1.81-2.46,3.99-3.42,6.88-3.42,.24,0,.4,0,.76,.04v3.78Z"/><path d="M213.05,68.02c0-7.57,4.43-10.83,9.74-10.83,5.8,0,8.21,3.82,8.21,8.94,0,.81-.04,1.73-.16,2.7h-13.93c.16,5.27,2.5,6.92,5.8,6.92,2.94,0,4.31-1.33,4.87-3.66l3.22,.72c-.84,4.03-4.07,6-8.21,6-7.33,0-9.54-5.11-9.54-10.79Zm14.17-2.09c0-3.7-1.41-5.76-4.67-5.76-2.74,0-5.39,1.65-5.59,5.76h10.26Z"/><path d="M236.92,78.33v-29.14h10.02c6.88,0,8.78,3.14,8.78,7.12s-2.62,6.12-5.8,6.84v.08c4.75,.6,6.96,3.18,6.96,7.21,0,5.96-4.47,7.89-10.79,7.89h-9.18Zm7.89-16.38c3.18,0,7.17-.89,7.17-5.11,0-3.62-2.09-4.59-6.08-4.59h-5.31v9.7h4.23Zm.76,13.28c4.23,0,7.41-.64,7.41-5.03,0-3.86-2.9-5.19-6.6-5.19h-5.8v10.22h4.99Z"/><path d="M276.37,74.42c0,1.13,.2,1.61,1.25,1.61,.36,0,.72-.08,1.25-.24l.16,2.29c-.8,.4-1.85,.64-2.86,.64-2.05,0-2.98-1.13-3.18-2.46-1.61,1.61-3.74,2.54-6.64,2.54-5.23,0-6.12-3.54-6.12-5.55,0-5.51,4.87-7.04,10.71-7.04,.64,0,1.25,.04,1.81,.08v-2.01c0-2.62-.72-4.23-4.11-4.23-2.86,0-3.94,1.13-4.39,3.42l-3.22-.6c.64-3.86,3.14-5.68,7.93-5.68,5.11,0,7.41,1.97,7.41,7.12v10.1Zm-3.58-5.47c-.56-.08-1.33-.12-2.09-.12-2.86,0-6.68,.28-6.68,3.82,0,1.77,.64,3.3,3.46,3.3,2.13,0,4.19-1.13,5.31-2.33v-4.67Z"/><path d="M300.41,78.33h-3.66v-13.48c0-2.86-1.05-4.43-3.86-4.43-2.37,0-4.95,1.53-6.04,2.5v15.42h-3.66v-20.69h3.22l.2,2.46c2.01-1.61,4.59-2.9,7.45-2.9,4.43,0,6.36,2.42,6.36,7.08v14.05Z"/><path d="M310.27,66.73l8.9-9.1h4.15l-7.17,7.45,7.69,13.24h-4.03l-6.36-10.67-3.18,3.14v7.53h-3.66v-30.39h3.66v18.8Z"/></g></svg>