<?xml version="1.0" encoding="UTF-8"?><svg id="Lager_1" xmlns="http://www.w3.org/2000/svg" xmlns:xlink="http://www.w3.org/1999/xlink" viewBox="0 0 260 224"><defs><radialGradient id="Namnlös_övertoning_17" cx="213.14" cy="112.79" fx="213.14" fy="112.79" r="8.73" gradientTransform="matrix(1, 0, 0, 1, 0, 0)" gradientUnits="userSpaceOnUse"><stop offset=".14" stop-color="#8cc63f"/><stop offset=".74" stop-color="#39b54a"/></radialGradient><radialGradient id="Namnlös_övertoning_17-2" cx="44.02" cy="105.61" fx="44.02" fy="105.61" r="23.45" xlink:href="#Namnlös_övertoning_17"/><radialGradient id="Namnlös_övertoning_17-3" cx="85.29" cy="119.84" fx="85.29" fy="119.84" r="8.31" xlink:href="#Namnlös_övertoning_17"/></defs><g><path d="M94.74,20.58l-.13,.57,104.32,.13c30.03,0,54.37,24.34,54.37,54.37v64.02h.7V28.51c0-4.38-3.55-7.92-7.92-7.92H94.74Z" fill="#e6e6e6"/><ellipse cx="209.63" cy="44.83" rx="2.95" ry="3.02" fill="#3f3d56"/><ellipse cx="199.43" cy="44.83" rx="2.95" ry="3.02" fill="#3f3d56"/><ellipse cx="189.23" cy="44.83" rx="2.95" ry="3.02" fill="#3f3d56"/><g><path d="M165.06,90.49h-41.31c-1.42,0-2.57-1.15-2.57-2.57s1.15-2.57,2.57-2.57h41.31c1.42,0,2.57,1.15,2.57,2.57s-1.15,2.57-2.57,2.57Z" fill="#e6e6e6"/><path d="M197.3,99.19H123.75c-1.42,0-2.57-1.15-2.57-2.57s1.15-2.57,2.57-2.57h73.54c1.42,0,2.57,1.15,2.57,2.57s-1.15,2.57-2.57,2.57Z" fill="#e6e6e6"/></g><path d="M211.21,112.7H109.84c-2.19,0-3.97-1.78-3.97-3.97v-32.92c0-2.19,1.78-3.97,3.97-3.97h101.38c2.19,0,3.97,1.78,3.97,3.97v32.92c0,2.19-1.78,3.97-3.97,3.97Zm-101.38-40.16c-1.8,0-3.27,1.47-3.27,3.27v32.92c0,1.8,1.47,3.27,3.27,3.27h101.38c1.8,0,3.27-1.47,3.27-3.27v-32.92c0-1.8-1.47-3.27-3.27-3.27H109.84Z" fill="#3f3d56"/><g><circle cx="213.14" cy="112.79" r="8.73" fill="url(#Namnlös_övertoning_17)"/><path d="M215.28,109.99c-.7-.84-1.86-1.34-2.95-1.02-.99,.29-1.82,1.23-1.73,2.3,.04,.5,.25,.98,.59,1.34,.39,.41,.9,.55,1.45,.6,.59,.05,1.09,.14,1.48,.62,.34,.42,.45,.98,.25,1.49-.46,1.21-2.1,1.35-2.79,.26-.27-.43-.95-.03-.68,.4,.56,.89,1.69,1.38,2.71,1.04,.99-.32,1.72-1.35,1.63-2.4-.1-1.09-.97-1.99-2.05-2.14-.57-.08-1.17-.02-1.55-.53-.3-.4-.37-.95-.14-1.4,.28-.54,.88-.89,1.49-.89,.69,0,1.29,.37,1.71,.89,.32,.39,.88-.17,.56-.56h0Z" fill="#fff"/><path d="M212.22,107.38l-.38,10.99c-.01,.34,.51,.34,.52,0l.38-10.99c.01-.34-.51-.34-.52,0h0Z" fill="#fff"/><path d="M213.44,107.38l-.38,10.99c-.01,.34,.51,.34,.52,0l.38-10.99c.01-.34-.51-.34-.52,0h0Z" fill="#fff"/></g></g><g><g><polygon points="32.63 207 35.87 207 37.41 194.51 32.63 194.51 32.63 207" fill="#a0616a"/><path d="M32.52,210.38h9.96v-.13c0-2.14-1.74-3.88-3.88-3.88h0l-1.82-1.38-3.39,1.38h-.87v4h0Z" fill="#2f2e41"/></g><g><polygon points="52.42 207 55.66 207 57.2 194.51 52.42 194.51 52.42 207" fill="#a0616a"/><path d="M52.3,210.38h9.96v-.13c0-2.14-1.74-3.88-3.88-3.88h0l-1.82-1.38-3.39,1.38h-.87v4h0Z" fill="#2f2e41"/></g><path d="M29.77,127.55l29.61-.82-.19,16.71-1.56,19.53s3.65,14.32,.52,28.64l-.26,10.94-8.33-.52s-1.43-21.48,.39-29.55l-5.47-29.16-5.21,28.38s.78,16.4-1.3,22.91v6.13h-5.89s-6.35-21.5-1.66-32.43l-.65-40.75h0Z" fill="#2f2e41"/><path d="M51.07,79s-.8-2-1.4-2.9c-4.18,0-4.71,.29-8.35,0l-10.12,54.33s-5.56,4.69,.55,4.69,14.92-1.7,17.33-.43,10.09-.71,10.09-.71l-8.1-54.98h0Z" fill="url(#Namnlös_övertoning_17-2)"/><path d="M41.49,76l-3.75,3.99-2.47,.03c-2.29,.03-4.12,1.9-4.1,4.19l.78,22.83s-7.01,21.72-2.32,22.57l-.85,3.27,8.99,5.54s2.73-14.59,3.15-17.86,2.54-21.68,2.54-21.68c0,0-.41-15.15-.7-16.55l-1.27-6.33Z" fill="#2f2e41"/><path d="M49.79,76.16l-1.85,9.52,4.69,25.15s-1.14,23.3,2.42,25.57l5.6-1.45-.43-4.55s.51-1.11,.23-5.37c-.28-4.26-1.96-12.03-1.96-12.03l2.48-28.32s-6.2-5.82-8.9-5.11l-2.27-3.41h0Z" fill="#2f2e41"/><g><path d="M19.17,129.68l.58-7.75,4.47-.29-.9,8.17c.14,.21,.26,.43,.34,.69,.45,1.36-.29,2.84-1.66,3.28s-2.84-.29-3.28-1.66c-.29-.87-.09-1.78,.45-2.45h0Z" fill="#a0616a"/><path d="M36.4,80.11l-2.36,.04c-1.74,.03-3.28,1.14-3.86,2.78l-8.83,25.23-.92,4.7s-4.24,10.16-2.65,11.7l.76,2.83,5.62-.09-.04-2.32s1.72-.16,1.71-2.2c0,0,4.45-7.66,3.27-10.05l3.03-5.88,4.27-26.74Z" fill="#2f2e41"/></g><g><path d="M91.58,119.84l-5.7-5.28-3.47,2.84,6.23,5.37c.03,.25,.1,.5,.21,.74,.6,1.31,2.15,1.88,3.45,1.28,1.31-.6,1.88-2.15,1.28-3.45-.38-.83-1.15-1.36-1.99-1.49h0Z" fill="#a0616a"/><path d="M57.36,81.87l-2.86,11.05,10.01,13.76,3.26,3.51s14.04,10.97,16.22,10.59l2.73,1.06,3.24-4.59-1.9-1.33s.88-1.48-.77-2.68c0,0-11.9-9.67-14.53-10.13l-2.96-5.91-9.05-12.61-3.39-2.71h0Z" fill="#2f2e41"/></g><path d="M50.55,73.72s-.08,.05-.11,.08c-.3,.2-.62,.38-.95,.53,0,0-.01,0-.02,.01-.6,.28-1.24,.49-1.92,.62-.7,.13-1.39,.16-2.06,.11-3.47-.27-6.45-2.84-7.11-6.42-.22-1.19-.16-2.37,.14-3.47,.76-2.84,3.09-5.13,6.17-5.7,4.27-.79,8.38,2.03,9.17,6.31,.58,3.16-.81,6.23-3.3,7.93h0Z" fill="#a0616a"/><path d="M41.32,73.53l.47-2.19s-1.29-1.12,0-2.17l.7-.46h1.07l.69-3.53,4.42-.29s4.42-.88,5.01-2.36c0,0-1.47-.29-1.18-1.47,0,0-3.53-4.42-6.77-3.24-3.24,1.18-4.42,2.36-4.42,2.36,0,0-5.3-.88-5.3,5.6s5.3,7.76,5.3,7.76Z" fill="#2f2e41"/><g><path d="M89.74,130.09h-8.9c-.96,0-1.75-.79-1.75-1.75v-17.01c0-.96,.79-1.75,1.75-1.75h8.9c.96,0,1.75,.79,1.75,1.75v17.01c0,.96-.79,1.75-1.75,1.75Z" fill="#3f3d56"/><path d="M91.49,115.84s-.07,.03-.07,.07v2.37s.03,.07,.07,.07,.07-.03,.07-.07v-2.37s-.03-.07-.07-.07Z" fill="#3f3d56"/><path d="M91.32,111.33v17.01c0,.84-.65,1.53-1.48,1.58h-.04s-.04,0-.07,0c0,0-.08,0-.23-.02-.15-.01-.37-.03-.64-.05-.08,0-.17-.01-.26-.02-.18-.01-.38-.03-.59-.05-.09,0-.17-.01-.26-.02-.46-.04-.97-.09-1.52-.14-.09,0-.18-.02-.28-.03h-.07c-.39-.05-.79-.09-1.18-.13h-.07c-.69-.08-1.38-.17-2.03-.26-.5-.07-.97-.14-1.39-.21-.14-.02-.27-.05-.4-.07-.02,0-.05,0-.07-.01-.89-.18-1.48-.37-1.48-.57v-17.01c0-.87,.71-1.58,1.58-1.58h.95c.15,0,.27,.12,.29,.27v.03c.03,.15,.17,.26,.32,.26h5.79c.15,0,.29-.11,.32-.26v-.03c.02-.15,.14-.27,.29-.27h.95c.87,0,1.58,.71,1.58,1.58h0Z" fill="url(#Namnlös_övertoning_17-3)"/><path d="M79.05,114.06s-.07,.03-.07,.07v.59s.03,.07,.07,.07,.07-.03,.07-.07v-.59s-.03-.07-.07-.07Z" fill="#3f3d56"/><path d="M79.05,115.84s-.07,.03-.07,.07v1.15s.03,.07,.07,.07,.07-.03,.07-.07v-1.15s-.03-.07-.07-.07Z" fill="#3f3d56"/><path d="M79.05,117.47s-.07,.03-.07,.07v1.15s.03,.07,.07,.07,.07-.03,.07-.07v-1.15s-.03-.07-.07-.07Z" fill="#3f3d56"/><path d="M80.42,110.01h1.26c.05,0,.09,.04,.09,.09h0c0,.05-.04,.09-.09,.09h-1.26c-.05,0-.09-.04-.09-.09h0c0-.05,.04-.09,.09-.09Z" fill="#3f3d56"/><circle cx="89.03" cy="110.05" r=".15" fill="#3f3d56"/><circle cx="89.44" cy="110.05" r=".15" fill="#3f3d56"/><circle cx="89.84" cy="110.05" r=".15" fill="#3f3d56"/></g><g><circle cx="85.49" cy="120" r="4.69" fill="#fff"/><path d="M86.64,118.49c-.37-.45-1-.72-1.58-.55-.53,.16-.98,.66-.93,1.24,.02,.27,.13,.52,.32,.72,.21,.22,.48,.29,.78,.32,.32,.03,.59,.07,.8,.33,.18,.23,.24,.53,.14,.8-.25,.65-1.13,.72-1.5,.14-.14-.23-.51-.02-.36,.21,.3,.48,.91,.74,1.46,.56,.53-.17,.92-.73,.87-1.29-.05-.59-.52-1.07-1.1-1.15-.31-.04-.63,0-.83-.28-.16-.21-.2-.51-.07-.75,.15-.29,.47-.48,.8-.48,.37,0,.69,.2,.92,.48,.17,.21,.47-.09,.3-.3h0Z" fill="#6c63ff"/><path d="M84.99,117.1l-.2,5.9c0,.18,.27,.18,.28,0l.2-5.9c0-.18-.27-.18-.28,0h0Z" fill="#6c63ff"/><path d="M85.65,117.1l-.2,5.9c0,.18,.27,.18,.28,0l.2-5.9c0-.18-.27-.18-.28,0h0Z" fill="#6c63ff"/></g></g><path d="M80.07,210.61c0,.2-.16,.35-.35,.35H4.16c-.2,0-.35-.16-.35-.35s.16-.35,.35-.35H79.71c.2,0,.35,.16,.35,.35Z" fill="#ccc"/></svg>